<svg xmlns="http://www.w3.org/2000/svg" width="23.01" height="16.109" viewBox="0 0 23.01 16.109"><path d="M24.528,7.533A2.881,2.881,0,0,0,22.5,5.5c-1.8-.494-9-.5-9-.5s-7.2-.008-9,.464a2.943,2.943,0,0,0-2.03,2.044,30.463,30.463,0,0,0-.479,5.535,30.277,30.277,0,0,0,.467,5.535A2.881,2.881,0,0,0,4.48,20.607c1.819.494,9,.5,9,.5s7.2.008,9-.463a2.891,2.891,0,0,0,2.031-2.027A30.327,30.327,0,0,0,25,13.087a28.838,28.838,0,0,0-.468-5.554ZM11.195,16.5,11.2,9.6l5.986,3.455Z" transform="translate(-1.986 -5)" fill="red"/></svg>