<svg xmlns="http://www.w3.org/2000/svg" width="18.008" height="18.038" viewBox="0 0 18.008 18.038"><g transform="translate(-2.997)"><path d="M20.947,8.305a6.53,6.53,0,0,0-.419-2.216A4.61,4.61,0,0,0,17.9,3.456a6.606,6.606,0,0,0-2.186-.42c-.962-.043-1.267-.055-3.709-.055s-2.755,0-3.71.055a6.606,6.606,0,0,0-2.185.42A4.607,4.607,0,0,0,3.472,6.089a6.554,6.554,0,0,0-.419,2.185C3.01,9.237,3,9.542,3,11.984s0,2.754.056,3.71a6.6,6.6,0,0,0,.419,2.187,4.61,4.61,0,0,0,2.634,2.632,6.584,6.584,0,0,0,2.185.45c.963.043,1.268.056,3.71.056s2.755,0,3.71-.056a6.59,6.59,0,0,0,2.186-.419,4.615,4.615,0,0,0,2.633-2.633,6.586,6.586,0,0,0,.419-2.187c.043-.962.056-1.267.056-3.71S21,9.262,20.947,8.305Zm-8.953,8.3a4.623,4.623,0,1,1,4.623-4.623A4.622,4.622,0,0,1,11.994,16.6ZM16.8,8.263a1.078,1.078,0,1,1,1.077-1.078A1.077,1.077,0,0,1,16.8,8.263Z" transform="translate(0 -2.981)" fill="#c13584"/><circle cx="3" cy="3" r="3" transform="translate(8.997 6)" fill="#c13584"/></g></svg>